<?xml version="1.0" encoding="UTF-8"?>
<svg id="Layer_1" data-name="Layer 1" xmlns="http://www.w3.org/2000/svg" viewBox="0 0 420.79 614.79">
  <defs>
    <style>
      .cls-1 {
        fill: #fff;
      }
    </style>
  </defs>
  <path class="cls-1" d="M412.63,36.33c-7.12-2.6-14.15-5.03-21.08-7.33-3.46-1.13-6.83.9-7.9,4.37-9.03,29.35-36.21,58.27-70.49,73.57-4.3,1.92-4.84,7.78-1.06,10.58,25.6,19,44.17,44.45,49.6,70.62.53,2.64,2.93,5.58,5.59,5.89l3.5.41c4.86-.63,7.29-4.61,8.72-9.3l40.74-133.46c1.93-6.3-1.44-13.1-7.62-15.35Z"/>
  <path class="cls-1" d="M355.13,18.19C234.25-13.98,143.37.91,95.51,28.85c-15.75,9.18-29.03,20.03-36.93,32.01-2.54,3.87,0,9.1,4.6,9.64l189.14,22.13c50.09,5.86,96.58-33.23,107.2-66.17,1.12-3.5-.83-7.3-4.39-8.25Z"/>
  <path class="cls-1" d="M212.67,540.34c-27.09-3.06-46.04-32.8-42.63-66.52l42.18-124.15c1.44-4.24-1.87-8.59-6.35-8.27-30.53,2.13-72.28,14.19-78.03,63.36-9.74,83.24-73.21,111.07-122.13,117.9-2.74.38-5.02,2.44-5.36,5.18-4.24,34.84,30.73,66.65,79.5,72.35l123.96,14.5c6.84.8,13.05-4.1,13.85-10.95l5.8-49.58c.79-6.79-3.99-13.06-10.78-13.83Z"/>
  <path class="cls-1" d="M335.29,191.1c-10.2-32.08-42.92-68.67-85.87-73.69l-189.73-22.2c-4.44-.52-8.03,3.65-6.8,7.95,6.18,21.71,25.2,42.47,50.1,55.46C61.21,249.7,27.7,381.15,7.4,488.71c-.82,4.35,3.14,7.98,7.46,7.03,38.12-8.48,81.07-33.03,88.19-93.88,7.56-64.61,65.22-86.61,117.58-86.24,3.19.02,5.87-2.28,6.24-5.44l1.52-13.03c.4-3.42,3.5-5.87,6.92-5.47l18.59,2.18c4.07.48,8.11-1.08,10.81-4.15,2.71-3.08,3.73-7.27,2.76-11.24-3.49-14.12-4.63-59.27,20.42-89.03,2.09-2.48,5.85-2.77,8.45-.83l13.35,9.92c2.5,1.61,5.47,2.32,8.44,1.93l11.9-1.53c3.75-.49,6.39-4.22,5.24-7.82Z"/>
</svg>